<?xml version="1.0" encoding="UTF-8" standalone="no"?>
<svg
  xmlns:dc="http://purl.org/dc/elements/1.1/"
  xmlns:cc="http://creativecommons.org/ns#"
  xmlns:rdf="http://www.w3.org/1999/02/22-rdf-syntax-ns#"
  xmlns:svg="http://www.w3.org/2000/svg"
  xmlns="http://www.w3.org/2000/svg"
  viewBox="0 0 338.49332 519.08002"
  height="519.08002"
  width="338.49332"
  xml:space="preserve"
  id="svg2"
  version="1.1">
  <metadata id="metadata8">
    <rdf:RDF>
      <cc:Work rdf:about="">
        <dc:format>image/svg+xml</dc:format><dc:type rdf:resource="http://purl.org/dc/dcmitype/StillImage"/></cc:Work>
    </rdf:RDF>
  </metadata><defs id="defs6"/>
  <g transform="matrix(1.3333333,0,0,-1.3333333,0,519.08)" id="g10">
    <g transform="scale(0.1)" id="g12">
      <path id="path14" style="fill:#231f20;fill-opacity:1;fill-rule:nonzero;stroke:none" d="M 2.42969,82.3516 H 22.3594 V 52 H 51.668 V 82.3516 H 71.6016 V 1.62109 H 51.668 V 33.5586 H 22.3594 V 1.62109 H 2.42969 V 82.3516"/>
      <path
      id="path16"
      style="fill:#231f20;fill-opacity:1;fill-rule:nonzero;stroke:none"
      d="m 184.395,47.3086 -8.243,-19.8164 h 16.832 z M 165.273,1.62109 h -19.585 l 35.734,81.64061 h 7.211 L 225.164,1.62109 H 204.211 L 199.859,11.6797 H 169.512 L 165.273,1.62109"/>
      <path
      id="path18"
      style="fill:#231f20;fill-opacity:1;fill-rule:nonzero;stroke:none"
      d="m 323.051,40.4297 c 6.844,0 11.59,1.0195 14.246,3.0391 2.664,2.0234 3.992,4.9414 3.992,8.75 0,3.8203 -1.328,6.75 -3.992,8.7695 -2.656,2.0234 -7.402,3.043 -14.246,3.043 h -4.098 V 40.4297 Z M 365.68,1.62109 H 343.852 L 329.805,23.8203 c -1.067,-0.0703 -2.114,-0.1211 -3.141,-0.1601 -1.027,-0.0508 -2.074,-0.0586 -3.141,-0.0586 h -4.57 V 1.62109 H 299.258 V 82.3516 h 17.976 c 7.18,0 13.496,-0.5625 18.957,-1.6602 5.454,-1.1094 10.02,-2.8594 13.688,-5.2812 3.66,-2.3985 6.43,-5.5 8.301,-9.3282 1.871,-3.8125 2.804,-8.4336 2.804,-13.8632 0,-5.418 -1.086,-10.0391 -3.254,-13.8477 -2.171,-3.8125 -5.312,-6.9102 -9.425,-9.2695 L 365.68,1.62109"/>
      <path id="path20" style="fill:#231f20;fill-opacity:1;fill-rule:nonzero;stroke:none" d="m 441.836,82.3516 h 19.926 V 19.0195 h 34.355 V 1.62109 H 441.836 V 82.3516"/>
      <path id="path22" style="fill:#231f20;fill-opacity:1;fill-rule:nonzero;stroke:none" d="m 572.043,82.3516 h 54.164 V 63.8008 H 591.734 V 50.8516 h 27.371 V 33.2188 H 591.734 V 19.0195 h 34.473 V 1.62109 H 572.043 V 82.3516"/>
      <path
      id="path24"
      style="fill:#231f20;fill-opacity:1;fill-rule:nonzero;stroke:none"
      d="m 709.234,83.3711 h 7.215 l 30.348,-46.7109 30.344,46.7109 h 7.214 L 790.082,1.62109 H 770.156 L 767.867,36.5391 748.285,6.76172 h -4.238 L 724.465,36.5391 722.18,1.62109 h -18.672 l 5.726,81.75001"/><path id="path26" style="fill:#231f20;fill-opacity:1;fill-rule:nonzero;stroke:none" d="m 966.895,82.3516 h 54.055 V 63.8008 H 986.594 V 46.2695 h 28.396 V 28.6406 H 986.594 V 1.62109 H 966.895 V 82.3516"/><path id="path28" style="fill:#231f20;fill-opacity:1;fill-rule:nonzero;stroke:none" d="m 1097.91,82.3516 h 19.92 V 1.62109 h -19.92 V 82.3516"/>
      <path id="path30" style="fill:#231f20;fill-opacity:1;fill-rule:nonzero;stroke:none" d="m 1199.71,82.3516 h 19.92 V 19.0195 h 34.36 V 1.62109 h -54.28 V 82.3516"/>
      <path
      id="path32"
      style="fill:#231f20;fill-opacity:1;fill-rule:nonzero;stroke:none"
      d="m 1333.46,83.3711 h 7.22 l 30.34,-46.7109 30.35,46.7109 h 7.22 l 5.73,-81.75001 h -19.93 L 1392.1,36.5391 1372.51,6.76172 h -4.22 l -19.58,29.77738 -2.3,-34.91801 h -18.67 l 5.72,81.75001"/>
      <path
      id="path34"
      style="fill:#231f20;fill-opacity:1;fill-rule:nonzero;stroke:none"
      d="m 1612.66,2.87891 c -4.81,1.90234 -9.03,4.64062 -12.66,8.24219 -3.62,3.5898 -6.48,7.9687 -8.58,13.168 -2.1,5.1914 -3.15,11.0703 -3.15,17.6406 0,6.5508 1.05,12.4414 3.15,17.6289 2.1,5.1914 4.96,9.582 8.58,13.1719 3.63,3.5781 7.83,6.3281 12.6,8.25 4.78,1.9101 9.87,2.8593 15.29,2.8593 4.51,0 8.26,-0.371 11.28,-1.0898 3.01,-0.7305 5.29,-1.4297 6.82,-2.1094 l -5.16,-17.8789 c -1.67,0.6875 -3.69,1.2383 -6.01,1.6602 -2.33,0.4179 -4.25,0.6289 -5.78,0.6289 -3.36,0 -6.31,-0.5625 -8.82,-1.7188 -2.52,-1.1406 -4.65,-2.7617 -6.36,-4.8632 -1.72,-2.0977 -3.02,-4.6094 -3.89,-7.5 -0.87,-2.8985 -1.32,-6.0977 -1.32,-9.6172 0,-3.5118 0.45,-6.7227 1.32,-9.6328 0.87,-2.8868 2.15,-5.3985 3.83,-7.4883 1.68,-2.1016 3.77,-3.7305 6.24,-4.8711 2.49,-1.1289 5.33,-1.7188 8.53,-1.7188 2.52,0 4.89,0.2578 7.11,0.75 2.21,0.5 3.89,0.9688 5.04,1.4297 l 5.5,-16.03905 C 1644.3,2.94922 1641.76,2.10156 1638.6,1.26953 1635.43,0.429688 1631.94,0 1628.12,0 c -5.5,0 -10.64,0.96875 -15.46,2.87891"/>
      <path
      id="path36"
      style="fill:#231f20;fill-opacity:1;fill-rule:nonzero;stroke:none"
      d="m 1765.13,19.25 c 2.26,1.0703 4.22,2.6211 5.9,4.6289 1.68,2.0234 2.98,4.5117 3.9,7.4531 0.9,2.9297 1.37,6.2774 1.37,10.0196 0,3.7382 -0.47,7.0781 -1.37,10.0195 -0.92,2.9297 -2.22,5.418 -3.9,7.4375 -1.68,2.0234 -3.64,3.582 -5.9,4.6406 -2.24,1.0703 -4.71,1.6016 -7.38,1.6016 -2.68,0 -5.14,-0.5313 -7.38,-1.6016 -2.27,-1.0586 -4.22,-2.6172 -5.91,-4.6406 -1.68,-2.0195 -2.98,-4.5078 -3.89,-7.4375 -0.92,-2.9414 -1.37,-6.2813 -1.37,-10.0195 0,-3.7422 0.45,-7.0899 1.37,-10.0196 0.91,-2.9414 2.21,-5.4297 3.89,-7.4531 1.69,-2.0078 3.64,-3.5586 5.91,-4.6289 2.24,-1.0703 4.7,-1.6094 7.38,-1.6094 2.67,0 5.14,0.5391 7.38,1.6094 z M 1742.69,2.98047 c -4.7,1.98828 -8.81,4.80078 -12.31,8.42973 -3.52,3.6093 -6.28,8.0117 -8.3,13.1718 -2.03,5.1368 -3.04,10.9297 -3.04,17.3477 0,6.4023 1.01,12.1992 3.04,17.3516 2.02,5.1406 4.78,9.5273 8.3,13.1601 3.5,3.6289 7.61,6.4375 12.31,8.418 4.7,1.9922 9.71,2.9804 15.06,2.9804 5.34,0 10.36,-0.9882 15.06,-2.9804 4.69,-1.9805 8.8,-4.7891 12.31,-8.418 3.51,-3.6328 6.28,-8.0195 8.3,-13.1601 2.01,-5.1524 3.04,-10.9493 3.04,-17.3516 0,-6.418 -1.03,-12.2109 -3.04,-17.3477 -2.02,-5.1601 -4.79,-9.5625 -8.3,-13.1718 -3.51,-3.62895 -7.62,-6.44145 -12.31,-8.42973 C 1768.11,1 1763.09,0 1757.75,0 c -5.35,0 -10.36,1 -15.06,2.98047"/><path
      id="path38"
      style="fill:#231f20;fill-opacity:1;fill-rule:nonzero;stroke:none"
      d="m 1877.76,83.3711 h 7.22 l 30.35,-46.7109 30.34,46.7109 h 7.22 l 5.73,-81.75001 h -19.93 L 1936.4,36.5391 1916.81,6.76172 h -4.23 L 1893,36.5391 1890.71,1.62109 h -18.67 l 5.72,81.75001"/>
      <path
      id="path40"
      style="fill:#231f20;fill-opacity:1;fill-rule:nonzero;stroke:none"
      d="m 2062.68,39.2891 c 6.85,0 11.59,1.1093 14.26,3.3203 2.65,2.2109 3.98,5.2422 3.98,9.0508 0,3.8086 -1.33,6.8203 -3.98,9.039 -2.67,2.2227 -7.41,3.3321 -14.26,3.3321 h -5.23 V 39.2891 Z m -24.93,43.0625 h 19.24 c 14.31,0 25.16,-2.4102 32.55,-7.211 7.38,-4.8086 11.08,-12.6484 11.08,-23.4804 0,-9.6211 -3.28,-16.9883 -9.82,-22.1094 -6.56,-5.1094 -15.77,-7.6719 -27.64,-7.6719 h -5.71 V 1.62109 h -19.7 V 82.3516"/><path
      id="path42"
      style="fill:#231f20;fill-opacity:1;fill-rule:nonzero;stroke:none"
      d="m 2201.28,47.3086 -8.25,-19.8164 h 16.84 z M 2182.15,1.62109 h -19.58 l 35.73,81.64061 h 7.21 l 36.54,-81.64061 h -20.97 l -4.35,10.05861 h -30.35 l -4.23,-10.05861"/>
      <path id="path44" style="fill:#231f20;fill-opacity:1;fill-rule:nonzero;stroke:none" d="M 2335.27,43.0586 V 1.62109 h -19.13 V 82.9102 h 7.56 l 42.03,-40.6407 v 40.0821 h 19.12 V 1.03906 h -6.18 l -43.4,42.01954"/>
      <path id="path46" style="fill:#231f20;fill-opacity:1;fill-rule:nonzero;stroke:none" d="m 2458.94,82.3516 h 21.64 l 16.73,-32.1797 17.18,32.1797 h 20.6 L 2506.92,30.0117 V 1.62109 h -19.7 V 28.9805 l -28.28,53.3711"/>
      <path
      id="path48"
      style="fill:#231f20;fill-opacity:1;fill-rule:evenodd;stroke:none"
      d="m 2368.6,3616.01 c 0,-15 -12.27,-27.27 -27.28,-27.27 h -139.59 c -15.02,0 -27.27,12.27 -27.27,27.27 v 139.61 c 0,14.99 12.25,27.26 27.27,27.26 h 139.59 c 15.01,0 27.28,-12.27 27.28,-27.26 z m 0,-281.95 c 0,-15.02 -12.27,-27.28 -27.28,-27.28 h -139.59 c -15.02,0 -27.27,12.26 -27.27,27.28 v 139.58 c 0,15 12.25,27.28 27.27,27.28 h 139.59 c 15.01,0 27.28,-12.28 27.28,-27.28 z m 0,-281.99 c 0,-14.98 -12.27,-27.26 -27.28,-27.26 h -139.59 c -15.02,0 -27.27,12.28 -27.27,27.26 v 139.62 c 0,14.99 12.25,27.25 27.27,27.25 h 139.59 c 15.01,0 27.28,-12.26 27.28,-27.25 z m 0,-281.94 c 0,-15.02 -12.27,-27.29 -27.28,-27.29 h -139.59 c -15.02,0 -27.27,12.27 -27.27,27.29 v 139.59 c 0,15 12.25,27.28 27.27,27.28 h 139.59 c 15.01,0 27.28,-12.28 27.28,-27.28 z m 0,-281.99 c 0,-14.99 -12.27,-27.26 -27.28,-27.26 h -139.59 c -15.02,0 -27.27,12.27 -27.27,27.26 v 139.61 c 0,15.01 12.25,27.27 27.27,27.27 h 139.59 c 15.01,0 27.28,-12.26 27.28,-27.27 z m 0,-281.95 c 0,-14.99 -12.27,-27.27 -27.28,-27.27 h -139.59 c -15.02,0 -27.27,12.28 -27.27,27.27 v 139.6 c 0,15 12.25,27.27 27.27,27.27 h 139.59 c 15.01,0 27.28,-12.27 27.28,-27.27 z m 0,-281.96 c 0,-15.01 -12.27,-27.26 -27.28,-27.26 h -139.59 c -15.02,0 -27.27,12.25 -27.27,27.26 v 139.6 c 0,15 12.25,27.27 27.27,27.27 h 139.59 c 15.01,0 27.28,-12.27 27.28,-27.27 z m 0,-281.95 c 0,-15.01 -12.27,-27.28 -27.28,-27.28 h -139.59 c -15.02,0 -27.27,12.27 -27.27,27.28 v 139.59 c 0,14.99 12.25,27.28 27.27,27.28 h 139.59 c 15.01,0 27.28,-12.29 27.28,-27.28 z M 364.234,3616.01 c 0,-15 -12.261,-27.27 -27.269,-27.27 H 197.367 c -15.008,0 -27.265,12.27 -27.265,27.27 v 139.61 c 0,14.99 12.257,27.26 27.265,27.26 h 139.598 c 15.008,0 27.269,-12.27 27.269,-27.26 z m 0,-281.95 c 0,-15.02 -12.261,-27.28 -27.269,-27.28 H 197.367 c -15.008,0 -27.265,12.26 -27.265,27.28 v 139.58 c 0,15 12.257,27.28 27.265,27.28 h 139.598 c 15.008,0 27.269,-12.28 27.269,-27.28 z m 0,-281.99 c 0,-14.98 -12.261,-27.26 -27.269,-27.26 H 197.367 c -15.008,0 -27.265,12.28 -27.265,27.26 v 139.62 c 0,14.99 12.257,27.25 27.265,27.25 h 139.598 c 15.008,0 27.269,-12.26 27.269,-27.25 z m 0,-281.94 c 0,-15.02 -12.261,-27.29 -27.269,-27.29 H 197.367 c -15.008,0 -27.265,12.27 -27.265,27.29 v 139.59 c 0,15 12.257,27.28 27.265,27.28 h 139.598 c 15.008,0 27.269,-12.28 27.269,-27.28 z m 0,-281.99 c 0,-14.99 -12.261,-27.26 -27.269,-27.26 H 197.367 c -15.008,0 -27.265,12.27 -27.265,27.26 v 139.61 c 0,15.01 12.257,27.27 27.265,27.27 h 139.598 c 15.008,0 27.269,-12.26 27.269,-27.27 z m 0,-281.95 c 0,-14.99 -12.261,-27.27 -27.269,-27.27 H 197.367 c -15.008,0 -27.265,12.28 -27.265,27.27 v 139.6 c 0,15 12.257,27.27 27.265,27.27 h 139.598 c 15.008,0 27.269,-12.27 27.269,-27.27 z m 0,-281.96 c 0,-15.01 -12.261,-27.26 -27.269,-27.26 H 197.367 c -15.008,0 -27.265,12.25 -27.265,27.26 v 139.6 c 0,15 12.257,27.27 27.265,27.27 h 139.598 c 15.008,0 27.269,-12.27 27.269,-27.27 z m 0,-281.95 c 0,-15.01 -12.261,-27.28 -27.269,-27.28 H 197.367 c -15.008,0 -27.265,12.27 -27.265,27.28 v 139.59 c 0,14.99 12.257,27.28 27.265,27.28 h 139.598 c 15.008,0 27.269,-12.29 27.269,-27.28 z M 2368.1,3893.12 c -2.31,-12.68 -13.45,-22.41 -26.78,-22.41 h -139.59 c -13.38,0 -24.52,9.73 -26.78,22.41 h -179.88 v -991.76 c 0,-37.59 -27.97,-68.04 -62.51,-68.04 H 591.438 c -34.547,0 -62.52,30.45 -62.52,68.04 v 991.76 H 363.746 c -2.316,-12.68 -13.465,-22.41 -26.781,-22.41 H 197.367 c -13.367,0 -24.515,9.73 -26.781,22.41 H 0 V 1536.08 h 170.586 c 2.266,12.68 13.414,22.41 26.781,22.41 h 139.598 c 13.316,0 24.465,-9.73 26.781,-22.41 h 165.172 v 991.77 c 0,37.58 27.973,68.05 62.52,68.05 H 1932.56 c 34.54,0 62.51,-30.47 62.51,-68.05 v -991.77 h 179.88 c 2.26,12.68 13.4,22.41 26.78,22.41 h 139.59 c 13.33,0 24.47,-9.73 26.78,-22.41 h 170.6 v 2357.04 h -170.6"/>
      <path id="path50" style="fill:#231f20;fill-opacity:1;fill-rule:nonzero;stroke:none" d="M 0.570313,1303.14 H 212.195 V 949.52 h 416.578 v 353.62 H 840.395 V 287.492 H 628.773 V 754.09 H 212.195 V 287.492 H 0.570313 V 1303.14"/>
      <path id="path52" style="fill:#231f20;fill-opacity:1;fill-rule:nonzero;stroke:none" d="M 974.848,1303.14 H 1567.17 V 1114.49 H 1187.18 V 931.23 h 379.99 V 738.512 H 1187.18 V 287.492 H 974.848 V 1303.14"/>
      <path
      id="path54"
      style="fill:#231f20;fill-opacity:1;fill-rule:nonzero;stroke:none"
      d="m 2538.7,612.52 c -17.59,-15.071 -34.51,-29.461 -50.76,-43.059 -17.84,-14.859 -37.56,-29.07 -59.19,-42.602 -68.95,-42.808 -143.37,-64.218 -223.12,-64.218 -89.25,0 -163.22,30.64 -221.79,91.961 -59.05,62.199 -88.59,141.328 -88.59,237.359 0,99.609 30.16,180.301 90.59,242.049 60.43,61.77 139.07,92.65 236,92.65 101.87,0 194.25,-35.41 277.25,-106.16 l 39.61,-33.43 v 236.94 c -74.87,50.63 -153.64,82.45 -236.41,95.37 -31.52,4.92 -62.42,7.42 -92.61,7.42 -70.33,0 -138.42,-13.06 -204.21,-39.21 -99.64,-38.77 -179.66,-103.23 -240.04,-193.4 -59.51,-88.36 -89.29,-188.678 -89.29,-300.881 0,-112.727 29.53,-213.239 88.58,-301.598 80.28,-121.281 194.53,-194.512 342.82,-219.762 38.37,-6.289 75.76,-9.469 112.26,-9.469 57.28,0 112.96,7.911 167.04,23.661 50.48,14.429 98.92,38.089 145.36,71 l 6.5,4.57 V 612.52"/>
    </g>
  </g>
</svg>
