<svg version="1.1" viewBox="0 0 339 144" xmlns="http://www.w3.org/2000/svg" xmlns:xlink="http://www.w3.org/1999/xlink">
  <defs>
    <style type="text/css">
      <![CDATA[
        .icon_letter { fill: #231f20; stroke: #eee; }
      ]]>
    </style>
  </defs>
  <title>HFC Logo</title>
  <g>
    <path id="icon-h" class="icon_letter" d="m0 3.15h28.18v47.08h55.46v-47.08h28.17v135.22h-28.17v-62.12h-55.46v62.12h-28.18v-135.22"/>
    <path id="icon-f" class="icon_letter" d="m129.71 3.15h78.87v25.12h-50.6v24.4h50.6v25.65h-50.6v60.05h-28.27v-135.22"/>
    <path id="icon-c" class="icon_letter" d="m337.92 95.1c-2.34 2.01-4.59 3.92-6.75 5.73-2.38 1.98-5 3.87-7.88 5.67-9.18 5.7-19.09 8.55-29.71 8.55-11.88 0-21.73-4.08-29.53-12.24-7.86-8.28-11.79-18.82-11.79-31.6 0-13.26 4.01-24.01 12.06-32.23 8.04-8.22 18.51-12.33 31.42-12.33 13.56 0 25.86 4.71 36.91 14.13 0.35 0.3 2.11 1.78 5.27 4.45v-31.54c-9.96-6.75-20.45-10.98-31.47-12.7-4.2-0.66-8.31-0.99-12.33-0.99-9.36 0-18.43 1.74-27.19 5.22-13.27 5.16-23.92 13.74-31.96 25.75-7.92 11.76-11.89 25.12-11.89 40.06 0 15.01 3.94 28.39 11.8 40.15 10.69 16.15 25.9 25.9 45.64 29.26 5.11 0.84 10.09 1.26 14.95 1.26 7.62 0 15.04-1.05 22.24-3.15 6.72-1.92 13.17-5.07 19.35-9.45 0.06-0.04 0.34-0.24 0.86-0.61v-33.39"/>
  </g>
</svg>
